<svg xmlns="http://www.w3.org/2000/svg" xmlns:xlink="http://www.w3.org/1999/xlink" width="303" height="124" viewBox="0 0 303 124">
    <defs>
        <filter id="a" width="103.7%" height="109.2%" x="-1.7%" y="-3.3%" filterUnits="objectBoundingBox">
            <feOffset dy="1" in="SourceAlpha" result="shadowOffsetOuter1"/>
            <feGaussianBlur in="shadowOffsetOuter1" result="shadowBlurOuter1" stdDeviation="1.5"/>
            <feColorMatrix in="shadowBlurOuter1" result="shadowMatrixOuter1" values="0 0 0 0 0 0 0 0 0 0 0 0 0 0 0 0 0 0 1 0"/>
            <feMerge>
                <feMergeNode in="shadowMatrixOuter1"/>
                <feMergeNode in="SourceGraphic"/>
            </feMerge>
        </filter>
        <path id="b" d="M62.054 90.084H.137V.21h61.917v89.874z"/>
        <path id="d" d="M.335.612h57.69v48.026H.335V.612z"/>
        <path id="f" d="M24.19.203V44.15H.18V.203h24.01z"/>
    </defs>
    <g fill="none" fill-rule="evenodd" filter="url(#a)" transform="translate(3 1)">
        <g transform="translate(74.758 29.101)">
            <mask id="c" fill="#fff">
                <use xlink:href="#b"/>
            </mask>
            <path fill="#FFF" d="M53.667 50.43c2.203 1.014 3.914 2.407 5.133 4.19 1.226 1.774 2.087 3.607 2.596 5.482.498 1.875.72 3.655.643 5.34-.068 1.685-.3 2.96-.681 3.827-.764 1.635-2.214 3.4-4.349 5.301-2.134 1.9-4.677 3.75-7.62 5.554-2.948 1.807-6.186 3.477-9.71 5.016a64.834 64.834 0 0 1-10.603 3.61c-3.543.865-6.971 1.31-10.278 1.334-3.306.027-6.228-.564-8.765-1.768-.817-.386-1.844-1.108-3.094-2.166-1.249-1.055-2.433-2.273-3.56-3.643-1.123-1.37-2.014-2.814-2.662-4.33-.645-1.515-.752-2.896-.323-4.15.48-1.346 1.415-2.523 2.804-3.533 1.394-1.01 2.984-1.84 4.78-2.49a38.621 38.621 0 0 1 5.61-1.552c1.942-.386 3.7-.635 5.278-.757 1.584-.12 2.869-.11 3.852.035.982.143 1.4.363 1.255.651-.14.285-.637.55-1.474.79-.835.244-1.85.497-3.055.761a87.398 87.398 0 0 0-3.952.975 30.85 30.85 0 0 0-4.171 1.441 17.138 17.138 0 0 0-3.7 2.166c-1.129.865-1.978 1.899-2.555 3.105-.62 1.293-.427 2.345.577 3.135 1.006.794 2.546 1.37 4.603 1.733 2.057.362 4.538.493 7.442.398 2.895-.098 5.953-.398 9.162-.9a86.486 86.486 0 0 0 9.736-2.131c3.286-.912 6.338-1.997 9.171-3.248 2.827-1.254 5.296-2.695 7.407-4.33 2.105-1.634 3.614-3.414 4.526-5.339.574-1.251.598-2.573.071-3.97-.527-1.396-1.776-2.55-3.736-3.465-2.637-1.25-5.453-1.973-8.445-2.163-2.996-.193-5.859-.122-8.594.214-.243.386-.456.58-.648.58-.281 0-.53-.143-.717-.431a65.768 65.768 0 0 0-4.6.829c-1.442.312-2.706.588-3.813.832-1.104.24-2.016.43-2.732.573-.72.146-1.17.17-1.365.072-.29-.143-.595-.443-.932-.9-.335-.458-.637-1.038-.9-1.73a7.242 7.242 0 0 1-.435-2.273c-.018-.82.157-1.64.544-2.455.62-1.301 2.117-2.213 4.491-2.745 2.371-.53 5.089-.79 8.159-.79V45.167c0-.547.023-1.147.07-1.807h-.07c-1.25 0-2.59-.324-4.023-.977-1.442-.651-2.76-1.697-3.955-3.144-1.196-1.444-2.19-3.298-2.984-5.563-.794-2.264-1.184-5.015-1.184-8.242 0-1.685.26-3.48.79-5.385a41.346 41.346 0 0 1 2.013-5.637 47.852 47.852 0 0 1 2.768-5.387c1.03-1.732 2.06-3.25 3.087-4.552 1.03-1.301 2.02-2.336 2.952-3.108.935-.77 1.71-1.156 2.335-1.156 1.53 0 2.768.276 3.7.829.936.553 1.659 1.215 2.162 1.985.497.767.82 1.53.965 2.273.145.746.219 1.308.219 1.694 0 .291-.34.701-1.01 1.227-.672.532-1.51 1.263-2.516 2.202a55.732 55.732 0 0 0-3.3 3.393c-1.202 1.323-2.31 2.883-3.313 4.69-1.007 1.803-1.844 3.871-2.516 6.204-.672 2.332-1.007 4.97-1.007 7.904 0 2.98.504 5.027 1.51 6.13 1.006 1.108 2.202 1.47 3.597 1.084a45.44 45.44 0 0 1 .248-3.138c.122-1.037.231-1.952.323-2.742.098-.797.22-1.432.364-1.914.14-.481.284-.722.43-.722.813 0 1.497.46 2.05 1.373.546.912.99 2.068 1.33 3.465 1.58-2.02 2.943-4.68 4.094-7.976 1.152-3.295 1.723-7.107 1.723-11.437 0-.434.243-.686.722-.758.48-.07 1.019.048 1.62.36.595.315 1.133.868 1.613 1.658.48.796.722 1.866.722 3.215 0 1.058-.23 2.487-.68 4.291-.46 1.807-1.117 3.682-1.978 5.63a37.71 37.71 0 0 1-3.165 5.7c-1.246 1.854-2.664 3.355-4.242 4.508 0 .82-.047 1.747-.145 2.778A77.967 77.967 0 0 1 39 47.331c1.486.143 2.948.312 4.387.502 1.436.19 2.8.431 4.094.722 1.297.289 2.469.592 3.523.904 1.057.312 1.942.636 2.664.971" mask="url(#c)"/>
        </g>
        <g transform="translate(78.99 .328)">
            <mask id="e" fill="#fff">
                <use xlink:href="#d"/>
            </mask>
            <path fill="#FFF" d="M.376 45.923c-.012-.199-.03-.407-.041-.609.313-.639.52-1.346.965-1.896.586-.719 1.302-1.37 2.054-1.955 2.11-1.64 4.49-2.897 6.95-4.047.865-.407 1.744-.796 2.635-1.2-.056-.188-.097-.357-.157-.52-.491-1.507-.982-3.014-1.48-4.511-2.022-6.18-4.01-12.373-6.098-18.533-.468-1.367-.192-2.481.728-3.575 1.128-1.34 2.579-2.344 4.139-3.218 4.319-2.425 9.032-3.89 13.993-4.722L26.077.8c.779-.063 1.554-.122 2.336-.187.923.023 1.844.023 2.762.07 1.441.075 2.844.277 4.147.839 1.178.508 1.965 1.278 2.016 2.543.03.64.139 1.275.222 1.914.547 4.216 1.092 8.43 1.634 12.65.382 2.983.74 5.972 1.122 8.955.047.387.127.77.198 1.18.116-.012.196-.015.27-.024 3.54-.472 7.083-.752 10.65-.526 1.596.101 3.162.312 4.627.904.809.326 1.52.763 1.827 1.574.323.838.044 1.626-.51 2.283-.704.835-1.48 1.655-2.359 2.344-2.572 2.006-5.538 3.456-8.572 4.784-5.154 2.261-10.524 4.003-16.024 5.408-4.873 1.245-9.799 2.24-14.822 2.755-.181.017-.356.074-.521.113-1.072.086-2.147.169-3.215.255-.406-.006-.811-.018-1.208-.009-2.389.045-4.772.012-7.084-.567-1.37-.342-2.614-.838-3.197-2.134" mask="url(#e)"/>
        </g>
        <path fill="#FFF" d="M44.497 75.454c0 2.6.133 4.775.393 6.53.267 1.757.48 3.165.649 4.22.165 1.061.207 1.816.11 2.276-.102.455-.528.684-1.297.684-1.196 0-2.238-.277-3.127-.83-.885-.552-1.654-1.3-2.303-2.234a15.364 15.364 0 0 1-1.645-3.14 24.787 24.787 0 0 1-1.122-3.608c-.672-2.888-1.03-6.157-1.078-9.815-1.098 3.462-2.155 6.52-3.162 9.164a112.195 112.195 0 0 1-1.329 3.39 31.35 31.35 0 0 1-1.364 2.925c-.456.844-.88 1.527-1.261 2.056-.382.526-.717.793-1.007.793-.571 0-1.33-.083-2.259-.252-.938-.167-1.85-.53-2.735-1.082-.89-.553-1.655-1.322-2.303-2.312-.645-.983-.97-2.273-.97-3.857 0-1.057.097-2.502.29-4.332.189-1.827.393-3.777.612-5.842.213-2.071.438-4.175.68-6.314.238-2.143.418-4.077.54-5.812.12-1.733.133-3.138.035-4.22-.098-1.084-.337-1.622-.716-1.622-.72 0-1.395.66-2.013 1.982-.625 1.325-1.226 3.045-1.8 5.161a112.376 112.376 0 0 0-1.652 7.108c-.527 2.624-1.03 5.22-1.51 7.794-.48 2.573-.935 5.004-1.364 7.286-.433 2.285-.844 4.124-1.226 5.52.237.964.323 1.635.255 2.021-.074.387-.566.577-1.475.577-1.63 0-2.983-.505-4.064-1.516-1.075-1.007-1.93-2.317-2.549-3.934-.624-1.61-1.065-3.438-1.332-5.482a73.946 73.946 0 0 1-.536-6.097 77.085 77.085 0 0 1-.07-5.81c.04-1.85.07-3.402.07-4.653 0-.529-.145-.891-.435-1.084-.287-.19-.426-.553-.426-1.082s.524-.853 1.578-.975c1.05-.119 2.22-.047 3.487.217a10.38 10.38 0 0 1 3.484 1.409c1.054.674 1.587 1.539 1.587 2.597 0 2.115-.14 4.38-.4 6.78a68.27 68.27 0 0 0-.394 7.51v1.512c0 .481.024.915.069 1.301.242-1.491.562-3.322.973-5.485.403-2.163.883-4.44 1.433-6.82.548-2.38 1.173-4.748 1.868-7.107.687-2.356 1.445-4.475 2.259-6.35.811-1.875 1.684-3.393 2.614-4.546.938-1.156 1.933-1.733 2.978-1.733 2.057 0 3.638.722 4.742 2.163 1.098 1.448 1.862 3.248 2.294 5.414.43 2.164.63 4.502.607 6.998a90.423 90.423 0 0 1-.322 7.004c-.193 2.16-.382 3.967-.575 5.41-.19 1.442-.213 2.167-.068 2.167.14 0 .382-.437.717-1.301.331-.865.74-1.95 1.22-3.248A128.745 128.745 0 0 1 31.8 68.67a60.52 60.52 0 0 1 1.898-4.258c.645-1.299 1.293-2.378 1.941-3.245.643-.868 1.276-1.302 1.901-1.302.903 0 1.83.075 2.759.217.935.143 1.77.398 2.516.76.74.36 1.347.85 1.827 1.48.48.625.716 1.418.716 2.378 0 1.203-.14 2.695-.432 4.478-.284 1.777-.43 3.872-.43 6.276M88.016 75.976c-.121-.03-.249-.048-.352-.093-.151-.005-.29-.023-.43-.041a3.261 3.261 0 0 1-.45.089c-.062.033-.127.071-.195.098a231.876 231.876 0 0 1-2.013 5.161c-.698 1.71-1.335 3.13-1.91 4.259-.57 1.129-.982 1.696-1.219 1.696-.577 0-1.006-.746-1.293-2.24-.285-1.489-.492-3.254-.613-5.301-.122-2.045-.18-4.113-.18-6.208 0-2.092-.025-3.764-.069-5.012v-1.156c0-.77-.48-1.551-1.442-2.345-.959-.793-2.542-1.191-4.745-1.191-1.098 0-1.936.145-2.516.433-.571.286-.995.64-1.255 1.046-.264.408-.42.853-.468 1.335-.044.481-.068.888-.068 1.224 0 .63-.127 1.533-.364 2.707a74.995 74.995 0 0 1-.897 3.866 67.488 67.488 0 0 1-1.261 4.252 55.789 55.789 0 0 1-1.474 3.97c-.504 1.206-.99 2.178-1.469 2.924-.48.745-.89 1.117-1.225 1.117-.527 0-.96-.24-1.294-.722-.337-.479-.586-1.07-.752-1.765a12.837 12.837 0 0 1-.325-2.276 41.923 41.923 0 0 1-.074-2.235c0-3.322.358-6.546 1.08-9.669.716-3.129 1.687-5.92 2.91-8.374 1.226-2.451 2.635-4.412 4.242-5.88 1.607-1.465 3.295-2.199 5.065-2.199.678 0 1.214.312 1.62.936.41.627.728 1.361.97 2.202.237.84.394 1.673.468 2.49.077.817.104 1.444.104 1.875 0 .386.133.639.4.76.266.12.568.14.896.072.34-.071.637-.22.903-.434.258-.22.39-.446.39-.686 0-2.645-.31-4.677-.935-6.098-.618-1.42-1.497-2.454-2.62-3.102-1.127-.65-2.456-1.037-3.987-1.153a65.023 65.023 0 0 0-5.106-.184c-2.688 0-5.006.856-6.972 2.564-1.968 1.709-3.608 3.825-4.929 6.347a32.99 32.99 0 0 0-2.942 8.121c-.645 2.883-.977 5.506-.977 7.866 0 2.499.266 4.63.793 6.388.527 1.754 1.261 3.186 2.191 4.291.935 1.108 2.03 1.914 3.274 2.416 1.246.505 2.59.758 4.023.758.96 0 1.832-.277 2.626-.83a9.957 9.957 0 0 0 2.12-2.02 15.2 15.2 0 0 0 1.654-2.636c.48-.96.903-1.839 1.261-2.632.358-.794.643-1.465.862-2.02.213-.55.37-.83.467-.83.092 0 .213.35.359 1.046.145.698.358 1.566.648 2.597a53.956 53.956 0 0 0 1.074 3.39 17.15 17.15 0 0 0 1.62 3.394c.648 1.034 1.388 1.902 2.232 2.6.832.695 1.832 1.046 2.978 1.046.53 0 .911-.074 1.148-.22 1.013-.333 2.043-1.248 3.094-2.74 1.054-1.491 2.072-3.248 3.06-5.265a75.892 75.892 0 0 0 2.763-6.499c.035-.089.065-.166.097-.255-.05-.193-.068-.392-.097-.592a2.362 2.362 0 0 1-.474-.433M161.421 67.662c.145-.434.311-.734.504-.903.189-.17.381-.214.577-.146.186.074.331.22.429.434.092.217.115.47.068.76-.145.577-.42 1.478-.826 2.702a81.241 81.241 0 0 1-1.51 4.115 96.052 96.052 0 0 1-2.013 4.69 40.749 40.749 0 0 1-2.335 4.403c-.814 1.325-1.652 2.404-2.513 3.248-.862.84-1.706 1.262-2.517 1.262h-.145c-2.353 0-4.218-.733-5.606-2.201-1.395-1.465-2.446-3.257-3.168-5.373a28.815 28.815 0 0 1-1.394-6.605c-.22-2.285-.332-4.27-.332-5.952 0-2.068.042-3.848.113-5.34.074-1.494.166-2.745.287-3.753.115-1.01.216-1.842.284-2.49.074-.65.11-1.191.11-1.622 0-.77.467-1.218 1.4-1.337.935-.12 1.977.015 3.132.398 1.145.386 2.193.948 3.123 1.694.935.745 1.406 1.577 1.406 2.49 0 .674-.024 1.42-.077 2.237-.044.817-.098 1.682-.145 2.594-.044.918-.092 1.819-.142 2.71a47.073 47.073 0 0 0-.071 2.487c0 3.896.302 7.072.903 9.527.595 2.454 1.207 4.38 1.832 5.773.474-.24 1.018-.766 1.613-1.587.601-.82 1.208-1.759 1.839-2.813a45.17 45.17 0 0 0 1.79-3.39 125.915 125.915 0 0 0 1.581-3.43c.48-1.085.88-2.032 1.19-2.85.311-.817.516-1.393.613-1.732m-8.129-22.518c0 1.112-.346 1.867-1.042 2.277-.692.41-1.554.576-2.584.505-1.027-.072-2.16-.324-3.375-.758a18.288 18.288 0 0 1-3.383-1.587c-1.036-.624-1.892-1.286-2.59-1.985-.687-.698-1.04-1.36-1.04-1.985 0-.912.178-1.61.536-2.091a3.055 3.055 0 0 1 1.442-1.046c.6-.22 1.305-.34 2.12-.36a79.403 79.403 0 0 1 2.59-.039c.861 0 1.734.244 2.62.725a9.663 9.663 0 0 1 2.377 1.801 10.277 10.277 0 0 1 1.687 2.309c.435.82.642 1.563.642 2.234"/>
        <path fill="#FFF" d="M170.186 88.732c-1.82 0-3.451-.553-4.884-1.661-1.442-1.105-2.673-2.573-3.706-4.404-1.03-1.824-1.824-3.904-2.372-6.243a31.085 31.085 0 0 1-.825-7.173c0-1.976.213-3.866.645-5.666.43-1.804.97-3.465 1.62-4.98.647-1.516 1.32-2.826 2.012-3.932.693-1.105 1.33-1.922 1.9-2.454.528-.577 1.262-1.034 2.2-1.373a11.87 11.87 0 0 1 2.839-.648c.96-.095 1.865-.071 2.73.072.864.142 1.482.41 1.87.796.382.383.83 1.105 1.326 2.163a26.276 26.276 0 0 1 1.3 3.284c.352 1.132.562 2.13.607 2.995.047.865-.213 1.298-.79 1.298-.575 0-1.054-.326-1.436-.977a16.657 16.657 0 0 1-1.075-2.16 67.945 67.945 0 0 1-.903-2.202c-.266-.672-.565-1.01-.9-1.01-.817 0-1.533.71-2.158 2.127-.624 1.417-1.128 3.2-1.51 5.34a53.906 53.906 0 0 0-.751 6.962c-.122 2.505-.062 4.825.174 6.965.243 2.142.687 3.92 1.335 5.34.643 1.417 1.522 2.127 2.62 2.127 1.294 0 2.457-.336 3.487-1.007a11.236 11.236 0 0 0 2.733-2.526 17.18 17.18 0 0 0 2.048-3.36 36.139 36.139 0 0 0 1.445-3.498c.376-1.103.69-2.065.932-2.888.237-.815.427-1.343.572-1.581a2.08 2.08 0 0 1 .79-.797c.338-.193.637-.3.897-.326.266-.021.459.065.58.252.116.193.086.485-.112.87-.142.286-.37.97-.675 2.054a64.134 64.134 0 0 1-1.303 3.899 50.368 50.368 0 0 1-2.045 4.796 26.248 26.248 0 0 1-2.84 4.62c-1.08 1.394-2.311 2.562-3.705 3.5-1.389.94-2.943 1.406-4.672 1.406"/>
        <path fill="#FFF" d="M204.12 67.662c.145-.434.31-.734.503-.903.19-.17.382-.214.577-.146.186.074.332.22.43.434.097.217.12.47.067.76-.145.577-.414 1.478-.82 2.702a87.424 87.424 0 0 1-1.51 4.115 90.825 90.825 0 0 1-2.018 4.69 40.232 40.232 0 0 1-2.336 4.403c-.814 1.325-1.652 2.404-2.513 3.248-.862.84-1.7 1.262-2.516 1.262h-.145c-2.348 0-4.213-.733-5.607-2.201-1.389-1.465-2.44-3.257-3.165-5.373a28.976 28.976 0 0 1-1.397-6.605c-.219-2.285-.332-4.27-.332-5.952 0-2.068.042-3.848.113-5.34.074-1.494.166-2.745.287-3.753.116-1.01.22-1.842.284-2.49.074-.65.11-1.191.11-1.622 0-.77.468-1.218 1.406-1.337.93-.12 1.977.015 3.126.398 1.152.386 2.194.948 3.129 1.694.93.745 1.4 1.577 1.4 2.49 0 .674-.024 1.42-.077 2.237-.044.817-.092 1.682-.139 2.594l-.145 2.71a50.297 50.297 0 0 0-.068 2.487c0 3.896.302 7.072.897 9.527.6 2.454 1.208 4.38 1.832 5.773.48-.24 1.019-.766 1.62-1.587.595-.82 1.207-1.759 1.832-2.813a45.177 45.177 0 0 0 1.797-3.39 125.915 125.915 0 0 0 1.58-3.43c.48-1.085.877-2.032 1.19-2.85.306-.817.51-1.393.608-1.732m-8.123-22.518c0 1.112-.347 1.867-1.042 2.277-.693.41-1.555.576-2.59.505-1.028-.072-2.156-.324-3.375-.758a18.47 18.47 0 0 1-3.384-1.587c-1.03-.624-1.892-1.286-2.584-1.985-.693-.698-1.042-1.36-1.042-1.985 0-.912.18-1.61.538-2.091.359-.485.838-.83 1.44-1.046.597-.22 1.302-.34 2.116-.36a79.403 79.403 0 0 1 2.59-.039c.861 0 1.735.244 2.62.725a9.663 9.663 0 0 1 2.377 1.801 10.097 10.097 0 0 1 1.687 2.309c.435.82.649 1.563.649 2.234"/>
        <path fill="#FFF" d="M241.215 62.755c.092-.386.26-.666.503-.832.237-.163.462-.238.681-.214.222.02.388.158.503.398.122.241.128.577.036 1.008-.047.29-.278 1.14-.68 2.561-.406 1.42-.951 3.129-1.614 5.126a213.42 213.42 0 0 1-2.31 6.457 76.226 76.226 0 0 1-2.761 6.495c-.989 2.02-2.001 3.777-3.058 5.266-1.054 1.491-2.084 2.407-3.088 2.742-.242.146-.624.217-1.157.217-1.146 0-2.146-.35-2.978-1.046-.838-.698-1.584-1.566-2.226-2.6-.654-1.03-1.184-2.166-1.625-3.393a58.845 58.845 0 0 1-1.075-3.388 39.8 39.8 0 0 1-.648-2.597c-.145-.698-.26-1.046-.358-1.046-.098 0-.25.277-.468.826-.213.556-.498 1.23-.862 2.021a72.912 72.912 0 0 1-1.26 2.633 15.103 15.103 0 0 1-1.653 2.638 9.748 9.748 0 0 1-2.122 2.018 4.474 4.474 0 0 1-2.62.832c-1.439 0-2.78-.253-4.029-.76-1.243-.503-2.335-1.308-3.268-2.416-.935-1.106-1.664-2.538-2.196-4.291-.521-1.756-.788-3.884-.788-6.389 0-2.356.326-4.98.971-7.865a32.92 32.92 0 0 1 2.946-8.121c1.317-2.523 2.96-4.639 4.925-6.347 1.966-1.706 4.29-2.562 6.972-2.562 1.874 0 3.573.063 5.106.182 1.53.121 2.863.502 3.988 1.153 1.122.647 2 1.687 2.626 3.105.618 1.417.932 3.45.932 6.094 0 .24-.133.473-.394.687-.26.216-.562.362-.897.433-.334.069-.636.048-.903-.07-.263-.123-.39-.375-.39-.759 0-.433-.036-1.06-.113-1.878a12.904 12.904 0 0 0-.468-2.49c-.236-.84-.559-1.575-.965-2.199-.411-.624-.947-.938-1.625-.938-1.767 0-3.457.733-5.065 2.198-1.607 1.471-3.016 3.43-4.236 5.88-1.225 2.458-2.2 5.248-2.916 8.374a43.196 43.196 0 0 0-1.08 9.67c0 .674.03 1.42.074 2.237.047.817.157 1.575.325 2.273.166.698.42 1.287.752 1.768.335.482.767.722 1.294.722.337 0 .746-.371 1.22-1.12.48-.746.976-1.718 1.474-2.924.509-1.2 1-2.523 1.48-3.97a65.458 65.458 0 0 0 1.255-4.252c.358-1.396.66-2.683.897-3.866.243-1.173.364-2.077.364-2.7 0-.337.024-.75.068-1.231.048-.478.204-.924.47-1.334.261-.407.682-.758 1.253-1.046.58-.288 1.412-.434 2.516-.434 2.209 0 3.786.398 4.749 1.192.959.793 1.438 1.574 1.438 2.344v1.159c.048 1.245.068 2.918.068 5.013 0 2.092.06 4.16.187 6.204.115 2.047.323 3.815.607 5.304.29 1.492.716 2.238 1.293 2.238.243 0 .649-.565 1.223-1.697.577-1.13 1.208-2.55 1.906-4.258a225.134 225.134 0 0 0 2.19-5.628 382.78 382.78 0 0 0 2.123-5.774 718.51 718.51 0 0 0 1.655-4.653c.45-1.298.728-2.092.826-2.38"/>
        <path fill="#FFF" d="M269.754 53.229c0 .579-.098 1.444-.296 2.6a440.213 440.213 0 0 1-.693 3.966 727.954 727.954 0 0 1-.885 4.764c-.316 1.685-.607 3.319-.879 4.906a146.79 146.79 0 0 0-.693 4.475c-.192 1.393-.296 2.552-.296 3.464 0 2.74.077 4.823.228 6.24.154 1.42.317 2.487.492 3.212.177.723.346 1.251.494 1.587.151.336.228.767.228 1.299 0 .532-.568.793-1.69.793-1.128 0-2.369-.407-3.74-1.227-1.364-.814-2.613-2.128-3.735-3.931-1.128-1.807-1.693-4.223-1.693-7.254 0-2.017.086-4.097.248-6.24.172-2.14.37-4.231.607-6.275.243-2.048.515-3.982.82-5.813.308-1.827.583-3.435.826-4.834a98.383 98.383 0 0 0-1.761 4.944 309.97 309.97 0 0 0-2.013 6.276c-.693 2.238-1.389 4.499-2.081 6.784a236.287 236.287 0 0 1-2.049 6.421 124.507 124.507 0 0 1-1.9 5.304c-.601 1.542-1.14 2.648-1.62 3.322-.047.333-.236.574-.57.72h-.217a2.662 2.662 0 0 1-.861.145c-1.73 0-3.162-.612-4.313-1.84-1.149-1.23-2.081-2.754-2.804-4.581-.716-1.828-1.243-3.827-1.578-5.994a68.404 68.404 0 0 1-.683-6.097c-.122-1.899-.166-3.51-.143-4.832.021-1.322.033-2.083.033-2.273 0-.336-.033-.564-.104-.686a1.946 1.946 0 0 0-.29-.363 1.923 1.923 0 0 1-.287-.362c-.07-.12-.103-.345-.103-.684 0-.332.547-.6 1.651-.793 1.099-.193 2.31-.226 3.633-.107 1.311.119 2.525.458 3.629 1.01 1.098.553 1.649 1.409 1.649 2.562 0 .386-.012 1.096-.036 2.13-.02 1.034-.056 2.163-.103 3.39-.05 1.228-.086 2.416-.11 3.57a139.366 139.366 0 0 0-.035 2.596c0 .969.035 1.858.103 2.675.077.817.157 1.586.255 2.305.435-1.536.974-3.292 1.619-5.265a367.53 367.53 0 0 1 2.081-6.169c.746-2.14 1.551-4.267 2.413-6.385a89.676 89.676 0 0 1 2.625-5.884c.883-1.803 1.78-3.354 2.694-4.653.906-1.302 1.797-2.19 2.659-2.668.097-.098.29-.194.574-.289.142-.05.275-.086.397-.11.115-.023.248-.035.393-.035h.684c.22 0 .444.027.687.071 1.098 0 1.77.119 2.007.363a10.53 10.53 0 0 1 3.126 1.476c.938.651 1.406 1.409 1.406 2.274"/>
        <g transform="translate(272.158 48.625)">
            <mask id="g" fill="#fff">
                <use xlink:href="#f"/>
            </mask>
            <path fill="#FFF" d="M.18 17.812c0-1.59.364-3.394 1.08-5.414A30.523 30.523 0 0 1 3.99 6.66c1.104-1.801 2.335-3.331 3.706-4.58C9.061.83 10.39.204 11.681.204h4.174c1.486 0 2.838.119 4.058.362 1.22.238 2.244.708 3.052 1.406.817.698 1.226 1.72 1.226 3.066 0 1.35-.37 2.743-1.116 4.184a24.826 24.826 0 0 1-2.514 3.97c-.932 1.206-1.844 2.19-2.729 2.96-.891.772-1.474 1.155-1.764 1.155-.335 0-.433-.528-.287-1.586.142-1.058.322-2.229.535-3.5.22-1.278.4-2.446.545-3.501.145-1.058.068-1.587-.219-1.587-.909 0-1.794.348-2.655 1.043-.868.701-1.655 1.563-2.372 2.6a16.17 16.17 0 0 0-1.802 3.39c-.48 1.23-.8 2.36-.965 3.391-.175 1.037-.145 1.902.068 2.6.213.695.684 1.046 1.4 1.046.287 0 .82.012 1.584.036.77.023 1.63.086 2.59.178.959.101 1.948.267 2.984.508 1.027.24 1.96.591 2.803 1.046a6.518 6.518 0 0 1 2.081 1.768c.55.722.826 1.614.826 2.668 0 1.058-.287 2.214-.861 3.465a19.887 19.887 0 0 1-2.265 3.717 33.518 33.518 0 0 1-3.164 3.57 35.736 35.736 0 0 1-3.52 3.069c-1.172.888-2.288 1.598-3.342 2.13-1.057.523-1.942.793-2.659.793-1.053 0-2.007-.196-2.839-.579-.84-.386-1.515-.82-2.018-1.301-.504-.482-.788-.913-.862-1.296-.068-.386.133-.58.607-.58.583 0 1.311-.26 2.197-.793.885-.529 1.823-1.215 2.806-2.056a42.9 42.9 0 0 0 2.98-2.814 42.312 42.312 0 0 0 2.698-3.03c.79-.984 1.438-1.888 1.942-2.708.503-.817.751-1.444.751-1.875-2.874.336-5.458.24-7.764-.288a12.477 12.477 0 0 1-2.84-.94 8.872 8.872 0 0 1-2.48-1.696c-.716-.692-1.29-1.575-1.723-2.632C.4 20.504.18 19.252.18 17.812" mask="url(#g)"/>
        </g>
        <path fill="#000" d="M105.217 28.57c.03.137.062.274.091.413a.777.777 0 0 1-1.498.402c-.085-.315-.16-.63-.219-.945-.074-.413.208-.785.62-.874.399-.083.798.17.902.559.041.148.068.297.104.445zm-3.232-11.16c.322.024.624.143.734.467.121.36.213.743.26 1.123.042.392-.266.734-.648.793a.778.778 0 0 1-.873-.58c-.063-.264-.128-.531-.184-.798-.092-.39.039-.684.376-.895.012-.012.024-.03.033-.041l.302-.069zm.815 4.15a2.171 2.171 0 0 1 2.602 1.628 2.184 2.184 0 0 1-1.631 2.609 2.163 2.163 0 0 1-2.59-1.626 2.168 2.168 0 0 1 1.619-2.611zm-3.781.23c-.34.075-.59.036-.82-.107-.504-.312-1-.615-1.492-.936-.486-.315-.625-.918-.332-1.393.29-.479.897-.624 1.394-.327.504.309 1.013.624 1.51.95.37.244.51.598.426 1.029a.955.955 0 0 1-.686.784zm10.661 6.676c-.334.077-.583.039-.82-.11-.497-.309-1-.615-1.492-.933a1.012 1.012 0 0 1-.331-1.397.999.999 0 0 1 1.388-.32c.515.309 1.018.624 1.516.953.37.235.509.598.432 1.023-.08.425-.347.683-.693.784zm-1.636-11.095a.957.957 0 0 1-.121.746c-.308.508-.625 1.019-.942 1.524-.308.473-.915.61-1.382.315a1.018 1.018 0 0 1-.326-1.388 40.77 40.77 0 0 1 .95-1.524c.237-.365.59-.511 1.019-.443.396.063.71.372.802.77zM99.74 30.738a.977.977 0 0 1-1.042-.383c-.248-.354-.275-.734-.056-1.109.305-.523.625-1.04.953-1.548.302-.46.92-.594 1.377-.303.462.288.618.892.34 1.361-.31.523-.636 1.046-.965 1.563a.919.919 0 0 1-.607.419zm8.424-8.993c.151-.035.296-.08.444-.107.406-.071.8.196.891.598.086.404-.15.82-.547.918-.296.077-.592.148-.891.21a.77.77 0 0 1-.891-.588.764.764 0 0 1 .538-.927c.148-.044.305-.068.456-.104zm-9.748 3.864c-.139.033-.284.071-.423.101a.782.782 0 0 1-.912-.568.775.775 0 0 1 .527-.944c.3-.084.607-.155.906-.211a.771.771 0 0 1 .897.612.79.79 0 0 1-.583.915c-.133.036-.272.062-.412.095z"/>
    </g>
</svg>
